# xmcd
#
# Track frame offsets:
#	150
#	21297
#	34972
#	52752
#	74167
#	85480
#	106285
#	127432
#	149280
#	176885
#	194330
#	239707
#
# Disc length: 3761 seconds
#
# Revision: 0
# Processed by: cddbd v1.5.2PL0 Copyright (c) Steve Scherf et al.
# Submitted via: audiograbber 1.83.01
#
DISCID=bf0eaf0c
DTITLE=Waylon Jennings - Closing In On The Fire
DYEAR=1998
DGENRE=Country Rock
TTITLE0=Closing In On The Fire
TTITLE1=I Know About Me, Don't Know About You [with Travis Tritt]
TTITLE2=Best Friends Of Mine
TTITLE3=Just Watch Your Mama And Me
TTITLE4=She's Too Good For Me [with Sheryl Crow]
TTITLE5=Back Home (Where I Come From)
TTITLE6=Be Mine [with Mark Knopfler]
TTITLE7=Easy Money
TTITLE8=The Blues Don't Care
TTITLE9=Untitled Waltz [with Carl Smith]
TTITLE10=No Expectations
TTITLE11=Audio Liner Notes
EXTD=
EXTT0=
EXTT1=
EXTT2=
EXTT3=
EXTT4=
EXTT5=
EXTT6=
EXTT7=
EXTT8=
EXTT9=
EXTT10=
EXTT11=
PLAYORDER=
